<svg width="664" height="591" viewBox="0 0 664 591" fill="none" xmlns="http://www.w3.org/2000/svg">
<g filter="url(#filter0_iiii_495_9395)">
<path d="M393.799 470.572C353.838 479.953 343.254 427.522 304.553 427.887C253.917 428.366 198.052 482.012 151.476 472.861C104.203 463.572 80.2427 422.317 70.5086 381.9C59.9804 338.187 63.7958 286.319 95.466 240.303C126.764 194.827 182.698 160.724 238.061 138.45C287.117 118.713 334.413 129.351 384.186 124.143C432.306 119.109 487.521 92.3206 525.783 108.346C564.11 124.399 578.054 165.737 578.211 205.409C578.35 240.497 546.979 275.59 526.584 311.004C511 338.063 493.855 363.123 472.832 388.387C448.467 417.666 431.921 461.624 393.799 470.572Z" fill="#484C9A"/>
</g>
<defs>
<filter id="filter0_iiii_495_9395" x="0.000488281" y="0.319092" width="663.364" height="606.152" filterUnits="userSpaceOnUse" color-interpolation-filters="sRGB">
<feFlood flood-opacity="0" result="BackgroundImageFix"/>
<feBlend mode="normal" in="SourceGraphic" in2="BackgroundImageFix" result="shape"/>
<feColorMatrix in="SourceAlpha" type="matrix" values="0 0 0 0 0 0 0 0 0 0 0 0 0 0 0 0 0 0 127 0" result="hardAlpha"/>
<feOffset dy="16"/>
<feGaussianBlur stdDeviation="16"/>
<feComposite in2="hardAlpha" operator="arithmetic" k2="-1" k3="1"/>
<feColorMatrix type="matrix" values="0 0 0 0 0 0 0 0 0 0 0 0 0 0 0 0 0 0 0.16 0"/>
<feBlend mode="normal" in2="shape" result="effect1_innerShadow_495_9395"/>
<feColorMatrix in="SourceAlpha" type="matrix" values="0 0 0 0 0 0 0 0 0 0 0 0 0 0 0 0 0 0 127 0" result="hardAlpha"/>
<feOffset dy="8"/>
<feGaussianBlur stdDeviation="8"/>
<feComposite in2="hardAlpha" operator="arithmetic" k2="-1" k3="1"/>
<feColorMatrix type="matrix" values="0 0 0 0 0 0 0 0 0 0 0 0 0 0 0 0 0 0 0.12 0"/>
<feBlend mode="normal" in2="effect1_innerShadow_495_9395" result="effect2_innerShadow_495_9395"/>
<feColorMatrix in="SourceAlpha" type="matrix" values="0 0 0 0 0 0 0 0 0 0 0 0 0 0 0 0 0 0 127 0" result="hardAlpha"/>
<feOffset dy="4"/>
<feGaussianBlur stdDeviation="4"/>
<feComposite in2="hardAlpha" operator="arithmetic" k2="-1" k3="1"/>
<feColorMatrix type="matrix" values="0 0 0 0 0 0 0 0 0 0 0 0 0 0 0 0 0 0 0.12 0"/>
<feBlend mode="normal" in2="effect2_innerShadow_495_9395" result="effect3_innerShadow_495_9395"/>
<feColorMatrix in="SourceAlpha" type="matrix" values="0 0 0 0 0 0 0 0 0 0 0 0 0 0 0 0 0 0 127 0" result="hardAlpha"/>
<feOffset dy="2"/>
<feGaussianBlur stdDeviation="2"/>
<feComposite in2="hardAlpha" operator="arithmetic" k2="-1" k3="1"/>
<feColorMatrix type="matrix" values="0 0 0 0 0 0 0 0 0 0 0 0 0 0 0 0 0 0 0.12 0"/>
<feBlend mode="normal" in2="effect3_innerShadow_495_9395" result="effect4_innerShadow_495_9395"/>
</filter>
</defs>
</svg>
